<?xml version="1.0" encoding="utf-8"?>
<!-- Generator: Adobe Illustrator 25.0.0, SVG Export Plug-In . SVG Version: 6.00 Build 0)  -->
<svg version="1.1" id="Layer_1" xmlns="http://www.w3.org/2000/svg" xmlns:xlink="http://www.w3.org/1999/xlink" x="0px" y="0px"
	 viewBox="0 0 1024 1024" style="enable-background:new 0 0 1024 1024;" xml:space="preserve">
<style type="text/css">
	.st0{fill:#FA4A0C;}
	.st1{fill:#EDEDED;}
	.st2{fill:none;stroke:#FA4A0C;stroke-miterlimit:10;}
</style>
<g>
	<g id="XMLID_1_">
		<g>
			<path class="st0" d="M681.3,509.9c0.2,92.9-76.4,169.4-169.5,169.3c-93.3-0.1-169.2-76.1-169-169.4
				c0.2-93.1,76.8-169.4,169.6-169.1C604.8,341.1,681.2,417.7,681.3,509.9z"/>
			<path class="st0" d="M933,311.5c0.2,133.3,1.4,266.6-0.8,399.9c-0.6,34.4-5,69.8-18.5,102.9c-26.6,65.1-77.4,98.6-144.3,110.7
				c-17.5,3.2-35.6,4-53.4,4.2c-68.2,0.5-136.4,0.2-204.5,0.2c-68.9,0-137.9,0.9-206.8-0.5c-25.6-0.5-51.9-3.5-76.5-10.4
				c-73.8-20.5-115.3-71.7-128.8-146c-3.1-16.8-4.3-34.1-4.4-51.1c-0.3-139.4-0.2-278.8-0.2-418.2c0-30.3,3.5-60.1,14.3-88.6
				c26.8-70.5,80.4-106.4,153.1-116.6c12.8-1.8,25.8-2.5,38.7-2.5c142.8-0.2,285.7-0.1,428.5-0.1c37.1,0,72.8,6.7,105.6,24.5
				c58.9,31.9,86.6,84.3,95.8,148.3C932.9,282.5,933,297.1,933,311.5z M846.4,239.9c0.1-32.7-26.5-59.7-59.2-59.9
				c-33.7-0.2-60.4,26-60.5,59.5c-0.1,33.1,25.9,59.5,58.9,59.8C819.2,299.6,846.3,273.1,846.4,239.9z M775.9,510.4
				c0.1-144.8-119-264.1-263.6-264.2C366.3,246,247.6,364.6,247.6,510.3c0.1,145.9,117.6,263.7,263.4,264
				C656.9,774.7,775.8,656.2,775.9,510.4z"/>
			<path class="st0" d="M1023.9,361.3c0.2,119.6,0.1,239.2,0.1,358.9c0,48.9-6.8,96.6-27.5,141.2
				c-41.9,90.6-115.1,140.2-211.6,157.3c-20.1,3.6-40.9,4.9-61.3,5c-141.3,0.4-282.7,0.3-424,0.2c-73.5-0.1-140.7-19.5-198-67.2
				C43.3,908.3,12.6,844.9,3.1,770.6c-1.6-12.8-2.7-25.8-2.7-38.7c-0.1-148.6-1-297.1,0.4-445.7c0.8-81.2,27.8-153.1,88.2-209.8
				c50.1-47,111-71.6,178.7-74c81.4-2.9,163-0.7,244.5-0.7c0-0.5,0-1,0-1.6c70.9,0,141.7-0.3,212.6,0.1
				c66.7,0.4,129.3,15.6,183.5,56.1c70.8,52.9,107.1,125.2,113.8,212.5C1024.6,299.5,1023.9,330.5,1023.9,361.3z M932.2,711.5
				c2.2-133.3,1-266.6,0.8-399.9c0-14.4-0.2-29-2.2-43.3c-9.2-64-36.9-116.4-95.8-148.3c-32.9-17.8-68.5-24.5-105.6-24.5
				c-142.8-0.1-285.7-0.1-428.5,0.1c-12.9,0-25.9,0.7-38.7,2.5c-72.7,10.2-126.3,46.1-153.1,116.6c-10.8,28.5-14.3,58.3-14.3,88.6
				c0,139.4-0.2,278.8,0.2,418.2c0,17.1,1.3,34.4,4.4,51.1c13.5,74.3,55,125.5,128.8,146c24.6,6.8,50.9,9.9,76.5,10.4
				c68.9,1.4,137.9,0.5,206.8,0.5c68.2,0,136.3,0.3,204.5-0.2c17.8-0.1,35.9-1,53.4-4.2c66.8-12.1,117.6-45.6,144.3-110.7
				C927.2,781.3,931.7,745.8,932.2,711.5z"/>
			<path class="st1" d="M787.2,180c32.7,0.2,59.3,27.2,59.2,59.9c-0.1,33.2-27.2,59.8-60.7,59.4c-33-0.3-59-26.7-58.9-59.8
				C726.9,206,753.5,179.8,787.2,180z"/>
			<path class="st1" d="M512.3,246.1c144.7,0.1,263.7,119.5,263.6,264.2c-0.1,145.8-119,264.3-264.8,264
				c-145.9-0.3-263.3-118.1-263.4-264C247.6,364.6,366.3,246,512.3,246.1z M511.9,679.2c93,0.1,169.6-76.5,169.5-169.3
				c-0.2-92.2-76.6-168.8-168.8-169.1c-92.9-0.4-169.4,75.9-169.6,169.1C342.7,603.1,418.5,679.1,511.9,679.2z"/>
		</g>
		<g>
			<path class="st2" d="M512.3,0.1c70.9,0,141.7-0.3,212.6,0.1c66.7,0.4,129.3,15.6,183.5,56.1c70.8,52.9,107.1,125.2,113.8,212.5
				c2.4,30.7,1.6,61.7,1.7,92.5c0.2,119.6,0.1,239.2,0.1,358.9c0,48.9-6.8,96.6-27.5,141.2c-41.9,90.6-115.1,140.2-211.6,157.3
				c-20.1,3.6-40.9,4.9-61.3,5c-141.3,0.4-282.7,0.3-424,0.2c-73.5-0.1-140.7-19.5-198-67.2C43.3,908.3,12.6,844.9,3.1,770.6
				c-1.6-12.8-2.7-25.8-2.7-38.7c-0.1-148.6-1-297.1,0.4-445.7c0.8-81.2,27.8-153.1,88.2-209.8c50.1-47,111-71.6,178.7-74
				c81.4-2.9,163-0.7,244.5-0.7C512.3,1.2,512.3,0.6,512.3,0.1z"/>
			<path class="st2" d="M511.5,929.4c68.2,0,136.3,0.3,204.5-0.2c17.8-0.1,35.9-1,53.4-4.2c66.8-12.1,117.6-45.6,144.3-110.7
				c13.5-33.1,17.9-68.5,18.5-102.9c2.2-133.3,1-266.6,0.8-399.9c0-14.4-0.2-29-2.2-43.3c-9.2-64-36.9-116.4-95.8-148.3
				c-32.9-17.8-68.5-24.5-105.6-24.5c-142.8-0.1-285.7-0.1-428.5,0.1c-12.9,0-25.9,0.7-38.7,2.5c-72.7,10.2-126.3,46.1-153.1,116.6
				c-10.8,28.5-14.3,58.3-14.3,88.6c0,139.4-0.2,278.8,0.2,418.2c0,17.1,1.3,34.4,4.4,51.1c13.5,74.3,55,125.5,128.8,146
				c24.6,6.8,50.9,9.9,76.5,10.4C373.6,930.3,442.6,929.4,511.5,929.4z"/>
			<path class="st2" d="M775.9,510.4c-0.1,145.8-119,264.3-264.8,264c-145.9-0.3-263.3-118.1-263.4-264
				C247.6,364.6,366.3,246,512.3,246.1C656.9,246.3,776,365.6,775.9,510.4z"/>
			<path class="st2" d="M511.9,679.2c93,0.1,169.6-76.5,169.5-169.3c-0.2-92.2-76.6-168.8-168.8-169.1
				c-92.9-0.4-169.4,75.9-169.6,169.1C342.7,603.1,418.5,679.1,511.9,679.2z"/>
			<path class="st2" d="M785.7,299.3c-33-0.3-59-26.7-58.9-59.8c0.1-33.5,26.8-59.8,60.5-59.5c32.7,0.2,59.3,27.2,59.2,59.9
				C846.3,273.1,819.2,299.6,785.7,299.3z"/>
		</g>
	</g>
</g>
</svg>
